<svg width="468" height="63" viewBox="0 0 468 63" fill="none" xmlns="http://www.w3.org/2000/svg">
<g clip-path="url(#clip0_1_3457)">
<path d="M161.231 42.8661L135.374 -45.2696C133.917 -50.2386 130.443 -54.3324 125.969 -56.9964L125.893 -57.2579C117.851 -61.4317 108.823 -62.1916 100.454 -59.7363L-5.72723 -28.5858C-1.83563 -28.8753 2.17806 -27.7805 5.56061 -25.9325L149.319 52.6094C155.746 56.1207 163.118 50.2656 161.046 43.2043L161.231 42.8661Z" fill="#6D39FF"/>
<path d="M-0.0410261 135.055L57.9876 28.8432C61.4989 22.4163 59.0437 14.0473 52.6168 10.5361L0.863696 -17.739C-4.5484 -20.6959 -11.7631 -19.1474 -15.0583 -13.9201L-39.714 30.8064C-41.8549 35.127 -42.3813 40.1101 -40.9235 45.0791L-15.067 133.215C-12.9954 140.276 -3.62904 141.221 -0.117756 134.794L-0.0410261 135.055Z" fill="#00D0D2"/>
<path d="M208.744 105.957L266.773 -0.254986C270.284 -6.68184 267.829 -15.0508 261.402 -18.5621L209.649 -46.8372C204.237 -49.7941 197.022 -48.2455 193.727 -43.0182L169.071 1.70825C166.93 6.02885 166.404 11.0119 167.862 15.981L193.718 104.117C195.79 111.178 205.156 112.123 208.667 105.696L208.744 105.957Z" fill="#00D0D2"/>
<path d="M272.221 23.6541L211.445 128.318C207.768 134.652 210.004 143.082 216.337 146.759L267.336 176.373C272.669 179.47 279.922 178.11 283.352 172.97L309.165 128.901C311.418 124.638 312.074 119.67 310.746 114.665L287.194 25.8857C285.307 18.7728 275.969 17.5844 272.291 23.9176L272.221 23.6541Z" fill="#00D0D2"/>
<path d="M84.6875 185.533L142.716 79.3209C146.227 72.8941 143.772 64.5251 137.345 61.0138L85.5922 32.7387C80.1801 29.7819 72.9654 31.3304 69.6702 36.5577L45.0145 81.2842C42.8736 85.6048 42.3472 90.5878 43.805 95.5569L69.6615 183.693C71.7331 190.754 81.0995 191.699 84.6108 185.272L84.6875 185.533Z" fill="#6D39FF"/>
<path d="M341.565 105.957L399.594 -0.254986C403.105 -6.68184 400.65 -15.0508 394.223 -18.5621L342.47 -46.8372C337.058 -49.7941 329.843 -48.2455 326.548 -43.0182L301.892 1.70825C299.752 6.02885 299.225 11.0119 300.683 15.981L326.539 104.117C328.611 111.178 337.977 112.123 341.489 105.696L341.565 105.957Z" fill="#6D39FF"/>
<path d="M430.738 151.175L488.767 44.963C492.278 38.5362 489.823 30.1672 483.396 26.6559L431.643 -1.61917C426.231 -4.57605 419.016 -3.02748 415.721 2.1998L391.065 46.9263C388.924 51.2469 388.398 56.2299 389.856 61.199L415.712 149.335C417.784 156.396 427.15 157.341 430.662 150.914L430.738 151.175Z" fill="#5027C2"/>
</g>
<defs>
<clipPath id="clip0_1_3457">
<rect width="468" height="65" fill="white" transform="translate(0 -2)"/>
</clipPath>
</defs>
</svg>
