<svg width="468" height="87" viewBox="0 0 468 87" fill="none" xmlns="http://www.w3.org/2000/svg">
<g clip-path="url(#clip0_1_3613)">
<rect width="468" height="89" transform="translate(0 -2)" fill="#FF266E"/>
<path d="M161.231 42.8663L135.374 -45.2693C133.917 -50.2384 130.443 -54.3321 125.969 -56.9961L125.893 -57.2577C117.851 -61.4315 108.823 -62.1913 100.454 -59.7361L-5.72723 -28.5855C-1.83563 -28.8751 2.17806 -27.7803 5.56061 -25.9322L149.319 52.6097C155.746 56.121 163.118 50.2659 161.046 43.2045L161.231 42.8663Z" fill="#FF4E80"/>
<path d="M-0.0410261 135.056L57.9876 28.8434C61.4989 22.4165 59.0437 14.0476 52.6168 10.5363L0.863696 -17.7388C-4.5484 -20.6957 -11.7631 -19.1471 -15.0583 -13.9198L-39.714 30.8066C-41.8549 35.1272 -42.3813 40.1103 -40.9235 45.0794L-15.067 133.215C-12.9954 140.276 -3.62904 141.221 -0.117756 134.794L-0.0410261 135.056Z" fill="#EE135B"/>
<path d="M208.744 105.957L266.773 -0.25523C270.284 -6.68209 267.829 -15.051 261.402 -18.5623L209.649 -46.8374C204.237 -49.7943 197.022 -48.2457 193.727 -43.0185L169.071 1.708C166.93 6.0286 166.404 11.0117 167.862 15.9807L193.718 104.116C195.79 111.178 205.156 112.122 208.667 105.696L208.744 105.957Z" fill="#EE135B"/>
<path d="M272.221 23.6541L211.445 128.318C207.768 134.652 210.004 143.082 216.337 146.759L267.336 176.373C272.669 179.47 279.922 178.11 283.352 172.97L309.165 128.901C311.418 124.638 312.074 119.67 310.746 114.665L287.194 25.8857C285.307 18.7728 275.969 17.5844 272.291 23.9176L272.221 23.6541Z" fill="#EE135B"/>
<path d="M84.688 185.533L142.717 79.3209C146.228 72.8941 143.773 64.5251 137.346 61.0138L85.5927 32.7387C80.1806 29.7819 72.9659 31.3304 69.6707 36.5577L45.015 81.2842C42.8741 85.6048 42.3477 90.5878 43.8055 95.5569L69.662 183.693C71.7336 190.754 81.1 191.699 84.6112 185.272L84.688 185.533Z" fill="#FF4E80"/>
<path d="M341.565 105.957L399.594 -0.25523C403.105 -6.68209 400.65 -15.051 394.223 -18.5623L342.47 -46.8374C337.058 -49.7943 329.843 -48.2457 326.548 -43.0185L301.892 1.708C299.752 6.0286 299.225 11.0117 300.683 15.9807L326.539 104.116C328.611 111.178 337.977 112.122 341.489 105.696L341.565 105.957Z" fill="#FF4E80"/>
<path d="M430.738 151.175L488.767 44.963C492.278 38.5362 489.823 30.1672 483.396 26.6559L431.643 -1.61917C426.231 -4.57605 419.016 -3.02748 415.721 2.1998L391.065 46.9263C388.924 51.2469 388.398 56.2299 389.856 61.199L415.712 149.335C417.784 156.396 427.15 157.341 430.662 150.914L430.738 151.175Z" fill="#EE135B"/>
<path d="M230.407 32.7612C230.669 32.0008 231.155 31.3423 231.799 30.8765C232.443 30.4108 233.212 30.1606 234 30.1606C234.789 30.1606 235.558 30.4108 236.201 30.8765C236.845 31.3423 237.332 32.0008 237.594 32.7612M244.794 35.3586H223.207M242.094 47.5665C241.869 51.0132 241.756 52.7366 240.658 53.7873C239.56 54.8379 237.871 54.8392 234.492 54.8392H233.509C230.131 54.8392 228.442 54.8392 227.342 53.7873C226.244 52.7366 226.132 51.0132 225.908 47.5665L225.323 38.6054M242.677 38.6054L242.423 42.5015M230.826 41.8522L231.461 48.3457M237.175 41.8522L236.54 48.3457" stroke="white" stroke-width="2" stroke-linecap="round"/>
</g>
<defs>
<clipPath id="clip0_1_3613">
<rect width="468" height="89" fill="white" transform="translate(0 -2)"/>
</clipPath>
</defs>
</svg>
